<?xml version="1.0" encoding="utf-8"?>
<!-- Generator: Adobe Illustrator 18.1.1, SVG Export Plug-In . SVG Version: 6.00 Build 0)  -->
<!DOCTYPE svg PUBLIC "-//W3C//DTD SVG 1.1//EN" "http://www.w3.org/Graphics/SVG/1.1/DTD/svg11.dtd">
<svg version="1.1" id="Layer_1" xmlns="http://www.w3.org/2000/svg" xmlns:xlink="http://www.w3.org/1999/xlink" x="0px" y="0px"
	 viewBox="0 0 750 1334" enable-background="new 0 0 750 1334" xml:space="preserve">
<rect fill="#FFFFFF" width="750" height="1334"/>
<path fill="none" d="M0.5,625.5c17.9,0,18.1,20,36,20c17.9,0,18-20,35.8-20c17.9,0,17.9,20,35.8,20c17.9,0,17.9-20,35.7-20
	c17.9,0,17.9,20,35.7,20c17.9,0,17.9-20,35.7-20c17.9,0,17.9,20,35.7,20c17.9,0,17.9-20,35.7-20c17.9,0,17.9,20,35.7,20
	c17.9,0,17.9-20,35.7-20c17.9,0,17.9,20,35.7,20c17.9,0,17.9-20,35.7-20c17.9,0,17.9,20,35.7,20c17.9,0,17.9-20,35.7-20
	c17.9,0,17.9,20,35.7,20c17.9,0,17.9-20,35.7-20c17.9,0,17.9,20,35.7,20c17.9,0,17.9-20,35.7-20c17.9,0,17.9,20,35.7,20
	c17.9,0,17.4-20,35.2-20s18.2,20,35.2,20v89.6V1334H0V735L0.5,625.5z"/>
<path fill="#FF0000" d="M0.5,747.5c17.9,0,18.1,20,36,20c17.9,0,18-20,35.8-20c17.9,0,17.9,20,35.8,20c17.9,0,17.9-20,35.7-20
	c17.9,0,17.9,20,35.7,20c17.9,0,17.9-20,35.7-20c17.9,0,17.9,20,35.7,20c17.9,0,17.9-20,35.7-20c17.9,0,17.9,20,35.7,20
	c17.9,0,17.9-20,35.7-20c17.9,0,17.9,20,35.7,20c17.9,0,17.9-20,35.7-20c17.9,0,17.9,20,35.7,20c17.9,0,17.9-20,35.7-20
	c17.9,0,17.9,20,35.7,20c17.9,0,17.9-20,35.7-20c17.9,0,17.9,20,35.7,20c17.9,0,17.9-20,35.7-20c17.9,0,17.9,20,35.7,20
	c17.9,0,17.4-20,35.2-20s18.2,20,35.2,20v89.6V1334H0V857L0.5,747.5z"/>
<g>
	<defs>
		<path id="SVGID_1_" d="M0.5,625.5c17.9,0,18.1,20,36,20c17.9,0,18-20,35.8-20c17.9,0,17.9,20,35.8,20c17.9,0,17.9-20,35.7-20
			c17.9,0,17.9,20,35.7,20c17.9,0,17.9-20,35.7-20c17.9,0,17.9,20,35.7,20c17.9,0,17.9-20,35.7-20c17.9,0,17.9,20,35.7,20
			c17.9,0,17.9-20,35.7-20c17.9,0,17.9,20,35.7,20c17.9,0,17.9-20,35.7-20c17.9,0,17.9,20,35.7,20c17.9,0,17.9-20,35.7-20
			c17.9,0,17.9,20,35.7,20c17.9,0,17.9-20,35.7-20c17.9,0,17.9,20,35.7,20c17.9,0,17.9-20,35.7-20c17.9,0,17.9,20,35.7,20
			c17.9,0,17.4-20,35.2-20s18.2,20,35.2,20v89.6V1334H0V735L0.5,625.5z"/>
	</defs>
	<clipPath id="SVGID_2_">
		<use xlink:href="#SVGID_1_"  overflow="visible"/>
	</clipPath>
	<g clip-path="url(#SVGID_2_)">
		<path fill="#FFFFFF" d="M302.3,124.3L286.3,147l-85.6-60.9L162.1,140l85.6,60.9l-16.1,22.7l-85.6-60.9l-54.7,77l-22.6-16.3
			L194.1,47L302.3,124.3z"/>
		<path fill="#FFFFFF" d="M363.7,217.4l41,184.1l104.7-23.3l6.2,27.1l-131.9,29.5l-47.3-211.5L363.7,217.4z"/>
	</g>
</g>
<rect y="328" fill="none" width="750" height="188"/>
<text transform="matrix(1 0 0 1 226.8418 417.5996)" fill="#FF0000" font-family="'GTWalsheimProTrial-Medium'" font-size="128">Float</text>
</svg>
